<svg width="140" height="29" viewBox="0 0 140 29" fill="none" xmlns="http://www.w3.org/2000/svg">
<path d="M20.9 9.85L21.49 19.74C21.51 20.01 21.38 20.19 21.31 20.27C21.23 20.36 21.06 20.5 20.78 20.5H18.05L20.21 9.85H20.9ZM22 6L21.99 6.02C22.01 6.26 21.99 6.51 21.93 6.76L14.56 20.29C14.32 21.3 13.42 22 12.38 22H20.78C22.07 22 23.09 20.91 22.99 19.62L22 6Z" fill="#162B3B"/>
<path d="M11.45 2.24C11.55 1.84 11.3 1.43 10.9 1.33C10.5 1.24 10.09 1.48 9.99 1.88L9.49 3.95H11.03L11.45 2.24Z" fill="#162B3B"/>
<path d="M18.05 2.21C18.14 1.8 17.88 1.41 17.47 1.32C17.07 1.23 16.67 1.49 16.58 1.9L16.13 3.97H17.67L18.05 2.21Z" fill="#162B3B"/>
<path d="M21.82 5.33C21.49 4.53 20.71 3.96 19.75 3.96H17.67L17.11 6.55C17.03 6.9 16.72 7.14 16.38 7.14C16.33 7.14 16.27 7.14 16.22 7.12C15.82 7.03 15.56 6.63 15.64 6.23L16.13 3.95L11.03 3.95L10.4 6.55C10.32 6.89 10.01 7.12 9.67 7.12C9.61 7.12 9.55 7.11 9.49 7.1C9.09 7 8.84 6.6 8.94 6.19L9.48 3.94H7.45C6.47 3.94 5.6 4.58 5.31 5.52L1.1 19.07C0.66 20.52 1.73 22 3.24 22H16.38C17.42 22 18.32 21.3 18.56 20.29L21.93 6.76C21.99 6.51 22.01 6.26 21.99 6.02C21.97 5.78 21.92 5.54 21.82 5.33ZM14.7 16.75H6.7C6.29 16.75 5.95 16.41 5.95 16C5.95 15.59 6.29 15.25 6.7 15.25H14.7C15.11 15.25 15.45 15.59 15.45 16C15.45 16.41 15.11 16.75 14.7 16.75ZM15.7 12.75H7.7C7.29 12.75 6.95 12.41 6.95 12C6.95 11.59 7.29 11.25 7.7 11.25H15.7C16.11 11.25 16.45 11.59 16.45 12C16.45 12.41 16.11 12.75 15.7 12.75Z" fill="#162B3B"/>
<path d="M39.76 21V7.8H34.768V4.2H48.952V7.8H43.84V21H39.76Z" fill="#162B3B"/>
<path d="M55.0399 21.24C53.7119 21.24 52.5279 20.952 51.4879 20.376C50.4639 19.8 49.6479 19.016 49.0399 18.024C48.4479 17.032 48.1519 15.896 48.1519 14.616C48.1519 13.336 48.4479 12.2 49.0399 11.208C49.6479 10.216 50.4639 9.432 51.4879 8.856C52.5279 8.28 53.7119 7.992 55.0399 7.992C56.3679 7.992 57.5439 8.28 58.5679 8.856C59.6079 9.432 60.4239 10.216 61.0159 11.208C61.6079 12.2 61.9039 13.336 61.9039 14.616C61.9039 15.896 61.6079 17.032 61.0159 18.024C60.4239 19.016 59.6079 19.8 58.5679 20.376C57.5439 20.952 56.3679 21.24 55.0399 21.24ZM55.0399 17.928C55.6159 17.928 56.1279 17.784 56.5759 17.496C57.0239 17.208 57.3759 16.816 57.6319 16.32C57.8879 15.824 58.0079 15.256 57.9919 14.616C58.0079 13.976 57.8879 13.408 57.6319 12.912C57.3759 12.4 57.0239 12 56.5759 11.712C56.1279 11.424 55.6159 11.28 55.0399 11.28C54.4639 11.28 53.9439 11.424 53.4799 11.712C53.0319 12 52.6799 12.4 52.4239 12.912C52.1679 13.408 52.0479 13.976 52.0639 14.616C52.0479 15.256 52.1679 15.824 52.4239 16.32C52.6799 16.816 53.0319 17.208 53.4799 17.496C53.9439 17.784 54.4639 17.928 55.0399 17.928Z" fill="#162B3B"/>
<path d="M64.8229 21V4.2H71.8549C73.0869 4.2 74.2149 4.408 75.2389 4.824C76.2629 5.224 77.1429 5.8 77.8789 6.552C78.6309 7.304 79.2069 8.192 79.6069 9.216C80.0069 10.24 80.2069 11.368 80.2069 12.6C80.2069 13.832 80.0069 14.968 79.6069 16.008C79.2069 17.032 78.6309 17.92 77.8789 18.672C77.1429 19.408 76.2629 19.984 75.2389 20.4C74.2149 20.8 73.0869 21 71.8549 21H64.8229ZM68.9029 17.4H68.3509H71.7349C72.4069 17.4 73.0069 17.288 73.5349 17.064C74.0629 16.824 74.5109 16.496 74.8789 16.08C75.2629 15.664 75.5589 15.16 75.7669 14.568C75.9749 13.976 76.0789 13.32 76.0789 12.6C76.0789 11.88 75.9749 11.224 75.7669 10.632C75.5589 10.04 75.2629 9.536 74.8789 9.12C74.5109 8.704 74.0629 8.384 73.5349 8.16C73.0069 7.92 72.4069 7.8 71.7349 7.8H68.2789H68.9029V17.4Z" fill="#162B3B"/>
<path d="M91.018 21.24C89.738 21.24 88.57 21.024 87.514 20.592C86.458 20.16 85.538 19.552 84.754 18.768C83.97 17.984 83.362 17.064 82.93 16.008C82.498 14.952 82.282 13.792 82.282 12.528C82.282 11.264 82.498 10.104 82.93 9.048C83.362 7.992 83.97 7.072 84.754 6.288C85.538 5.504 86.458 4.896 87.514 4.464C88.57 4.032 89.73 3.816 90.994 3.816C92.258 3.816 93.418 4.032 94.474 4.464C95.53 4.896 96.45 5.504 97.234 6.288C98.018 7.072 98.618 7.992 99.034 9.048C99.466 10.104 99.682 11.264 99.682 12.528C99.682 13.776 99.466 14.936 99.034 16.008C98.618 17.064 98.018 17.984 97.234 18.768C96.45 19.552 95.53 20.16 94.474 20.592C93.418 21.024 92.266 21.24 91.018 21.24ZM90.994 17.4C91.65 17.4 92.25 17.28 92.794 17.04C93.354 16.8 93.834 16.464 94.234 16.032C94.65 15.584 94.97 15.064 95.194 14.472C95.418 13.88 95.53 13.232 95.53 12.528C95.53 11.824 95.418 11.176 95.194 10.584C94.97 9.992 94.65 9.48 94.234 9.048C93.834 8.6 93.354 8.256 92.794 8.016C92.25 7.776 91.65 7.656 90.994 7.656C90.338 7.656 89.73 7.776 89.17 8.016C88.626 8.256 88.146 8.6 87.73 9.048C87.314 9.48 86.994 9.992 86.77 10.584C86.562 11.176 86.458 11.824 86.458 12.528C86.458 13.232 86.562 13.888 86.77 14.496C86.994 15.088 87.314 15.6 87.73 16.032C88.146 16.464 88.626 16.8 89.17 17.04C89.73 17.28 90.338 17.4 90.994 17.4Z" fill="#162B3B"/>
<path d="M110.495 21.24C109.215 21.24 108.047 21.024 106.991 20.592C105.935 20.16 105.015 19.552 104.231 18.768C103.447 17.984 102.839 17.064 102.407 16.008C101.975 14.952 101.759 13.792 101.759 12.528C101.759 11.264 101.975 10.104 102.407 9.048C102.839 7.992 103.447 7.072 104.231 6.288C105.015 5.504 105.935 4.896 106.991 4.464C108.047 4.032 109.207 3.816 110.471 3.816C111.735 3.816 112.895 4.032 113.951 4.464C115.007 4.896 115.927 5.504 116.711 6.288C117.495 7.072 118.095 7.992 118.511 9.048C118.943 10.104 119.159 11.264 119.159 12.528C119.159 13.776 118.943 14.936 118.511 16.008C118.095 17.064 117.495 17.984 116.711 18.768C115.927 19.552 115.007 20.16 113.951 20.592C112.895 21.024 111.743 21.24 110.495 21.24ZM110.471 17.4C111.127 17.4 111.727 17.28 112.271 17.04C112.831 16.8 113.311 16.464 113.711 16.032C114.127 15.584 114.447 15.064 114.671 14.472C114.895 13.88 115.007 13.232 115.007 12.528C115.007 11.824 114.895 11.176 114.671 10.584C114.447 9.992 114.127 9.48 113.711 9.048C113.311 8.6 112.831 8.256 112.271 8.016C111.727 7.776 111.127 7.656 110.471 7.656C109.815 7.656 109.207 7.776 108.647 8.016C108.103 8.256 107.623 8.6 107.207 9.048C106.791 9.48 106.471 9.992 106.247 10.584C106.039 11.176 105.935 11.824 105.935 12.528C105.935 13.232 106.039 13.888 106.247 14.496C106.471 15.088 106.791 15.6 107.207 16.032C107.623 16.464 108.103 16.8 108.647 17.04C109.207 17.28 109.815 17.4 110.471 17.4Z" fill="#162B3B"/>
<path d="M122.315 21V4.2H125.963L130.5 13L135.659 4.2H139.163V21H135.203V15.768C135.203 14.328 135.235 13.032 135.299 11.88C135.379 10.728 135.343 10.7517 135.519 9.61572L131.483 16.92H129.899L125.963 9.61572C126.139 10.6877 126.091 10.624 126.155 11.76C126.235 12.88 126.275 14.216 126.275 15.768V21H122.315Z" fill="#162B3B"/>
<path d="M119 24C102.182 27.6888 82 24 82 24V26.6349C95.4545 30.8507 117.505 28.3915 119 27.1618V24Z" fill="#99C8E0"/>
</svg>
